<svg width="28" height="28" viewBox="0 0 28 28" fill="none" xmlns="http://www.w3.org/2000/svg">
<g filter="url(#filter0_i_47_18)">
<path d="M18 2C18 0.89543 17.1046 0 16 0H12C10.8954 0 10 0.895431 10 2V10H2C0.89543 10 0 10.8954 0 12V16C0 17.1046 0.895431 18 2 18H10V26C10 27.1046 10.8954 28 12 28H16C17.1046 28 18 27.1046 18 26V18H26C27.1046 18 28 17.1046 28 16V12C28 10.8954 27.1046 10 26 10H18V2Z" fill="#EAEAEA"/>
</g>
<defs>
<filter id="filter0_i_47_18" x="0" y="0" width="28" height="32" filterUnits="userSpaceOnUse" color-interpolation-filters="sRGB">
<feFlood flood-opacity="0" result="BackgroundImageFix"/>
<feBlend mode="normal" in="SourceGraphic" in2="BackgroundImageFix" result="shape"/>
<feColorMatrix in="SourceAlpha" type="matrix" values="0 0 0 0 0 0 0 0 0 0 0 0 0 0 0 0 0 0 127 0" result="hardAlpha"/>
<feOffset dy="4"/>
<feGaussianBlur stdDeviation="2"/>
<feComposite in2="hardAlpha" operator="arithmetic" k2="-1" k3="1"/>
<feColorMatrix type="matrix" values="0 0 0 0 0 0 0 0 0 0 0 0 0 0 0 0 0 0 0.28 0"/>
<feBlend mode="normal" in2="shape" result="effect1_innerShadow_47_18"/>
</filter>
</defs>
</svg>
