<svg width="60" height="42" viewBox="0 0 60 42" fill="none" xmlns="http://www.w3.org/2000/svg">
<path fill-rule="evenodd" clip-rule="evenodd" d="M42.4631 25.2002C43.1981 25.9314 43.1981 27.1315 42.4631 27.8628C41.7319 28.594 40.5432 28.594 39.81 27.8628L35.6119 23.6628L31.3594 27.9189C30.6206 28.6501 29.4225 28.6501 28.6837 27.9189C27.945 27.1689 27.945 25.969 28.6837 25.2377L32.9362 20.9814L28.7382 16.8002C28.0051 16.069 28.0051 14.8689 28.7382 14.1377C29.4713 13.4064 30.66 13.4064 31.3913 14.1377L35.5894 18.3376L39.9019 14.0253C40.6425 13.294 41.8388 13.294 42.5776 14.0253C43.3182 14.7753 43.3182 15.9564 42.5776 16.7064L38.2651 21.019L42.4631 25.2002ZM52.4925 0.375216H18.8457C18.3207 0.337716 17.7844 0.506521 17.3832 0.900271L0.534363 19.5377C0.138738 19.9314 -0.0318628 20.4564 -0.0037378 20.9627C-0.0318628 21.4877 0.138738 22.0127 0.534363 22.4065L17.3832 41.0439C17.7507 41.4001 18.2307 41.5877 18.7107 41.5877V41.6252H52.4925C56.6381 41.6252 60 38.269 60 34.1252V7.87522C60 3.73147 56.6381 0.375216 52.4925 0.375216Z" fill="white"/>
</svg>
