<svg width="32" height="32" viewBox="0 0 32 32" fill="none" xmlns="http://www.w3.org/2000/svg">
<path d="M15.9987 0.25C14.5617 0.25 13.3965 1.41476 13.3965 2.8517C13.3965 4.28877 14.5617 5.45341 15.9987 5.45341C17.4357 5.45341 18.5999 4.28877 18.5999 2.8517C18.5999 1.41476 17.4357 0.25 15.9987 0.25Z" fill="#F5F6F6"/>
<path opacity="0.6" d="M15.9987 26.5464C14.5617 26.5464 13.3965 27.7111 13.3965 29.1481C13.3965 30.5852 14.5617 31.7498 15.9987 31.7498C17.4357 31.7498 18.5999 30.5852 18.5999 29.1481C18.5999 27.7111 17.4357 26.5464 15.9987 26.5464Z" fill="#F5F6F6"/>
<path opacity="0.3" d="M4.86188 4.86335C3.84552 5.87916 3.84552 7.52645 4.86188 8.54282C5.87825 9.55919 7.52505 9.55919 8.54136 8.54282C9.55772 7.52701 9.55772 5.87972 8.54136 4.86335C7.52505 3.84698 5.87825 3.84698 4.86188 4.86335Z" fill="#F5F6F6"/>
<path opacity="0.7" d="M23.4568 23.4574C22.4415 24.4737 22.4415 26.1211 23.4568 27.1374C24.4731 28.1537 26.121 28.1537 27.1363 27.1374C28.1526 26.1216 28.1526 24.4737 27.1363 23.4574C26.1199 22.4411 24.4731 22.4415 23.4568 23.4574Z" fill="#F5F6F6"/>
<path opacity="0.4" d="M5.4523 16.0001C5.45341 14.5636 4.28815 13.3989 2.85115 13.3989C1.41415 13.3984 0.248893 14.5637 0.250001 16.0006C0.248893 17.4371 1.41304 18.6018 2.85115 18.6018C4.28815 18.6018 5.4523 17.4371 5.4523 16.0001Z" fill="#F5F6F6"/>
<path opacity="0.8" d="M29.1491 13.3984C27.7121 13.3984 26.548 14.5638 26.5469 16.0001C26.5469 17.4372 27.7121 18.6018 29.1491 18.6024C30.5861 18.6024 31.7514 17.4371 31.7503 16.0001C31.7514 14.5637 30.5861 13.3984 29.1491 13.3984Z" fill="#F5F6F6"/>
<path opacity="0.5" d="M4.86184 23.458C3.84553 24.4738 3.84553 26.1217 4.86184 27.1375C5.87716 28.1539 7.52396 28.1539 8.54026 27.1375C9.55663 26.1212 9.55663 24.4738 8.54026 23.4575C7.525 22.4412 5.87821 22.4412 4.86184 23.458Z" fill="#F5F6F6"/>
<path opacity="0.9" d="M27.1377 8.54323C28.1541 7.52687 28.1541 5.87902 27.1377 4.86265C26.1214 3.84684 24.4735 3.84629 23.4572 4.86265C22.4408 5.87902 22.4419 7.52631 23.4572 8.54268C24.4735 9.55905 26.1214 9.55905 27.1377 8.54323Z" fill="#F5F6F6"/>
</svg>
