<svg width="54" height="52" viewBox="0 0 54 52" fill="none" xmlns="http://www.w3.org/2000/svg">
<path d="M47.4168 16.25V39.5833C47.4168 45.083 47.4168 47.8328 45.7082 49.5414C43.9997 51.25 41.2498 51.25 35.7502 51.25H32.8335H21.1668H18.2502C12.7504 51.25 10.0006 51.25 8.29205 49.5414C6.5835 47.8328 6.5835 45.083 6.5835 39.5833V16.25" stroke="#43464C" stroke-width="4" stroke-linejoin="round"/>
<path d="M0.75 22.0836L13.875 10.4169L23.1246 2.19511C25.3346 0.230535 28.6654 0.230535 30.8754 2.19511L40.125 10.4169L53.25 22.0836" stroke="#43464C" stroke-width="4" stroke-linecap="round" stroke-linejoin="round"/>
<path d="M21.1665 51.25V39.5833C21.1665 36.3616 23.7781 33.75 26.9998 33.75C30.2216 33.75 32.8332 36.3616 32.8332 39.5833V51.25" stroke="#43464C" stroke-width="4" stroke-linecap="round" stroke-linejoin="round"/>
</svg>
