<svg width="54" height="54" viewBox="0 0 54 54" fill="none" xmlns="http://www.w3.org/2000/svg">
<path d="M6.5835 0.75V35.75" stroke="white" stroke-width="4" stroke-linecap="round"/>
<path d="M6.5835 47.4165V53.2498" stroke="white" stroke-width="4" stroke-linecap="round"/>
<path d="M27 0.75V6.58333" stroke="white" stroke-width="4" stroke-linecap="round"/>
<path d="M47.4165 47.4165V53.2498" stroke="white" stroke-width="4" stroke-linecap="round"/>
<path d="M27 18.25V53.25" stroke="white" stroke-width="4" stroke-linecap="round"/>
<path d="M47.4165 0.75V35.75" stroke="white" stroke-width="4" stroke-linecap="round"/>
<path d="M32.8332 12.4168C32.8332 15.6385 30.2216 18.2502 26.9998 18.2502C23.7781 18.2502 21.1665 15.6385 21.1665 12.4168C21.1665 9.19517 23.7781 6.5835 26.9998 6.5835C30.2216 6.5835 32.8332 9.19517 32.8332 12.4168Z" stroke="white" stroke-width="4"/>
<path d="M53.2502 41.5833C53.2502 44.8051 50.6386 47.4167 47.4168 47.4167C44.1951 47.4167 41.5835 44.8051 41.5835 41.5833C41.5835 38.3616 44.1951 35.75 47.4168 35.75C50.6386 35.75 53.2502 38.3616 53.2502 41.5833Z" stroke="white" stroke-width="4"/>
<path d="M12.4167 41.5833C12.4167 44.8051 9.805 47.4167 6.58333 47.4167C3.36167 47.4167 0.75 44.8051 0.75 41.5833C0.75 38.3616 3.36167 35.75 6.58333 35.75C9.805 35.75 12.4167 38.3616 12.4167 41.5833Z" stroke="white" stroke-width="4"/>
</svg>
